<svg xmlns="http://www.w3.org/2000/svg" xmlns:xlink="http://www.w3.org/1999/xlink" width="500" zoomAndPan="magnify" viewBox="0 0 375 374.999991" height="500" preserveAspectRatio="xMidYMid meet" version="1.0"><defs><clipPath id="734b46580e"><path d="M 24.269531 38.789062 L 223.503906 38.789062 L 223.503906 337.5 L 24.269531 337.5 Z M 24.269531 38.789062 " clip-rule="nonzero"/></clipPath><clipPath id="72a3e7f68f"><path d="M 0.269531 0.789062 L 199.503906 0.789062 L 199.503906 299.5 L 0.269531 299.5 Z M 0.269531 0.789062 " clip-rule="nonzero"/></clipPath><clipPath id="66be5c4e82"><rect x="0" width="200" y="0" height="300"/></clipPath><clipPath id="bc8a4e3252"><path d="M 269.886719 38.789062 L 352.464844 38.789062 L 352.464844 337.5 L 269.886719 337.5 Z M 269.886719 38.789062 " clip-rule="nonzero"/></clipPath><clipPath id="3cea48650a"><path d="M 0.886719 0.789062 L 83.464844 0.789062 L 83.464844 299.5 L 0.886719 299.5 Z M 0.886719 0.789062 " clip-rule="nonzero"/></clipPath><clipPath id="bc5999d298"><rect x="0" width="84" y="0" height="300"/></clipPath></defs><g clip-path="url(#734b46580e)"><g transform="matrix(1, 0, 0, 1, 24, 38)"><g clip-path="url(#66be5c4e82)"><g clip-path="url(#72a3e7f68f)"><path fill="#000000" d="M 0.269531 0.789062 L 199.503906 0.789062 L 199.503906 299.496094 L 0.269531 299.496094 Z M 0.269531 0.789062 " fill-opacity="1" fill-rule="nonzero"/></g></g></g></g><g clip-path="url(#bc8a4e3252)"><g transform="matrix(1, 0, 0, 1, 269, 38)"><g clip-path="url(#bc5999d298)"><g clip-path="url(#3cea48650a)"><path fill="#000000" d="M 0.886719 0.789062 L 83.464844 0.789062 L 83.464844 299.488281 L 0.886719 299.488281 Z M 0.886719 0.789062 " fill-opacity="1" fill-rule="nonzero"/></g></g></g></g></svg>