<svg xmlns="http://www.w3.org/2000/svg" xmlns:xlink="http://www.w3.org/1999/xlink" width="500" zoomAndPan="magnify" viewBox="0 0 375 374.999991" height="500" preserveAspectRatio="xMidYMid meet" version="1.0"><defs><clipPath id="ec96f59829"><path d="M 24.269531 38.789062 L 95.761719 38.789062 L 95.761719 337.5 L 24.269531 337.5 Z M 24.269531 38.789062 " clip-rule="nonzero"/></clipPath><clipPath id="29f7b19a41"><path d="M 0.269531 0.789062 L 71.761719 0.789062 L 71.761719 299.5 L 0.269531 299.5 Z M 0.269531 0.789062 " clip-rule="nonzero"/></clipPath><clipPath id="03b00f3ed3"><rect x="0" width="72" y="0" height="300"/></clipPath><clipPath id="3f3ceb80b3"><path d="M 138.183594 38.789062 L 352.464844 38.789062 L 352.464844 337.5 L 138.183594 337.5 Z M 138.183594 38.789062 " clip-rule="nonzero"/></clipPath><clipPath id="354bb75998"><path d="M 0.183594 0.789062 L 214.464844 0.789062 L 214.464844 299.5 L 0.183594 299.5 Z M 0.183594 0.789062 " clip-rule="nonzero"/></clipPath><clipPath id="17be3f8e0d"><rect x="0" width="215" y="0" height="300"/></clipPath></defs><g clip-path="url(#ec96f59829)"><g transform="matrix(1, 0, 0, 1, 24, 38)"><g clip-path="url(#03b00f3ed3)"><g clip-path="url(#29f7b19a41)"><path fill="#000000" d="M 0.269531 0.789062 L 71.761719 0.789062 L 71.761719 299.523438 L 0.269531 299.523438 Z M 0.269531 0.789062 " fill-opacity="1" fill-rule="nonzero"/></g></g></g></g><g clip-path="url(#3f3ceb80b3)"><g transform="matrix(1, 0, 0, 1, 138, 38)"><g clip-path="url(#17be3f8e0d)"><g clip-path="url(#354bb75998)"><path fill="#000000" d="M 0.183594 0.789062 L 214.464844 0.789062 L 214.464844 299.488281 L 0.183594 299.488281 Z M 0.183594 0.789062 " fill-opacity="1" fill-rule="nonzero"/></g></g></g></g></svg>