<svg xmlns="http://www.w3.org/2000/svg" xmlns:xlink="http://www.w3.org/1999/xlink" width="500" zoomAndPan="magnify" viewBox="0 0 375 374.999991" height="500" preserveAspectRatio="xMidYMid meet" version="1.0"><defs><clipPath id="105ff90b75"><path d="M 24.332031 25.078125 L 350.582031 25.078125 L 350.582031 349.828125 L 24.332031 349.828125 Z M 24.332031 25.078125 " clip-rule="nonzero"/></clipPath><clipPath id="d8fa5e6d69"><path d="M 187.496094 25.078125 C 97.382812 25.078125 24.332031 97.796875 24.332031 187.5 C 24.332031 277.199219 97.382812 349.917969 187.496094 349.917969 C 277.609375 349.917969 350.664062 277.199219 350.664062 187.5 C 350.664062 97.796875 277.609375 25.078125 187.496094 25.078125 Z M 187.496094 25.078125 " clip-rule="nonzero"/></clipPath></defs><g clip-path="url(#105ff90b75)"><g clip-path="url(#d8fa5e6d69)"><path stroke-linecap="butt" transform="matrix(0.75, 0, 0, 0.75, 24.330688, 25.07742)" fill="none" stroke-linejoin="miter" d="M 217.553889 0.000939636 C 97.40284 0.000939636 0.0017915 96.959279 0.0017915 216.563454 C 0.0017915 336.16242 97.40284 433.12076 217.553889 433.12076 C 337.704939 433.12076 435.111195 336.16242 435.111195 216.563454 C 435.111195 96.959279 337.704939 0.000939636 217.553889 0.000939636 Z M 217.553889 0.000939636 " stroke="#000000" stroke-width="120" stroke-opacity="1" stroke-miterlimit="4"/></g></g><path stroke-linecap="butt" transform="matrix(-0.570344, -0.48704, 0.48704, -0.570344, 283.15771, 296.279863)" fill="none" stroke-linejoin="miter" d="M 0.000578839 25.502523 L 380.771847 25.499774 " stroke="#000000" stroke-width="70" stroke-opacity="1" stroke-miterlimit="4"/></svg>