<svg xmlns="http://www.w3.org/2000/svg" xmlns:xlink="http://www.w3.org/1999/xlink" width="500" zoomAndPan="magnify" viewBox="0 0 375 374.999991" height="500" preserveAspectRatio="xMidYMid meet" version="1.0"><defs><clipPath id="cb7c90e20f"><path d="M 67.972656 23.007812 L 302.722656 23.007812 L 302.722656 351.984375 L 67.972656 351.984375 Z M 67.972656 23.007812 " clip-rule="nonzero"/></clipPath><clipPath id="96b37ccf60"><path d="M 74.019531 168.929688 L 203.65625 168.929688 L 203.65625 345.945312 L 74.019531 345.945312 Z M 74.019531 168.929688 " clip-rule="nonzero"/></clipPath><clipPath id="060eeca95c"><path d="M 0.0195312 0.929688 L 129.65625 0.929688 L 129.65625 177.945312 L 0.0195312 177.945312 Z M 0.0195312 0.929688 " clip-rule="nonzero"/></clipPath><clipPath id="8764558e14"><rect x="0" width="130" y="0" height="178"/></clipPath></defs><g clip-path="url(#cb7c90e20f)"><path stroke-linecap="butt" transform="matrix(0.75, 0, 0, 0.75, 67.970779, 23.00578)" fill="none" stroke-linejoin="miter" d="M 0.00250268 0.00271031 L 313.315023 0.00271031 L 313.315023 438.638156 L 0.00250268 438.638156 Z M 0.00250268 0.00271031 " stroke="#000000" stroke-width="36" stroke-opacity="1" stroke-miterlimit="4"/></g><g clip-path="url(#96b37ccf60)"><g transform="matrix(1, 0, 0, 1, 74, 168)"><g clip-path="url(#8764558e14)"><g clip-path="url(#060eeca95c)"><path fill="#000000" d="M 0.0195312 0.929688 L 129.65625 0.929688 L 129.65625 178.167969 L 0.0195312 178.167969 Z M 0.0195312 0.929688 " fill-opacity="1" fill-rule="nonzero"/></g></g></g></g><path stroke-linecap="butt" transform="matrix(0.416403, -0.623786, 0.623786, 0.416403, 192.44397, 176.341863)" fill="none" stroke-linejoin="miter" d="M -0.00240922 5.000968 L 236.230601 4.999624 " stroke="#000000" stroke-width="10" stroke-opacity="1" stroke-miterlimit="4"/></svg>