<svg xmlns="http://www.w3.org/2000/svg" xmlns:xlink="http://www.w3.org/1999/xlink" width="500" zoomAndPan="magnify" viewBox="0 0 375 374.999991" height="500" preserveAspectRatio="xMidYMid meet" version="1.0"><defs><clipPath id="5ca566173e"><path d="M 67.972656 23.007812 L 302.722656 23.007812 L 302.722656 351.984375 L 67.972656 351.984375 Z M 67.972656 23.007812 " clip-rule="nonzero"/></clipPath><clipPath id="733faa6a1f"><path d="M 74.019531 168.929688 L 203.65625 168.929688 L 203.65625 345.945312 L 74.019531 345.945312 Z M 74.019531 168.929688 " clip-rule="nonzero"/></clipPath><clipPath id="195749b064"><path d="M 0.0195312 0.929688 L 129.65625 0.929688 L 129.65625 177.945312 L 0.0195312 177.945312 Z M 0.0195312 0.929688 " clip-rule="nonzero"/></clipPath><clipPath id="02aae408ef"><rect x="0" width="130" y="0" height="178"/></clipPath></defs><g clip-path="url(#5ca566173e)"><path stroke-linecap="butt" transform="matrix(0.75, 0, 0, 0.75, 67.970779, 23.005838)" fill="none" stroke-linejoin="miter" d="M 0.00250268 0.00263223 L 313.315023 0.00263223 L 313.315023 438.638078 L 0.00250268 438.638078 Z M 0.00250268 0.00263223 " stroke="#000000" stroke-width="56" stroke-opacity="1" stroke-miterlimit="4"/></g><g clip-path="url(#733faa6a1f)"><g transform="matrix(1, 0, 0, 1, 74, 168)"><g clip-path="url(#02aae408ef)"><g clip-path="url(#195749b064)"><path fill="#000000" d="M 0.0195312 0.929688 L 129.65625 0.929688 L 129.65625 178.167969 L 0.0195312 178.167969 Z M 0.0195312 0.929688 " fill-opacity="1" fill-rule="nonzero"/></g></g></g></g><path stroke-linecap="butt" transform="matrix(0.416403, -0.623786, 0.623786, 0.416403, 186.8299, 172.594208)" fill="none" stroke-linejoin="miter" d="M -0.00244693 14.000988 L 236.230563 13.999645 " stroke="#000000" stroke-width="28" stroke-opacity="1" stroke-miterlimit="4"/></svg>