<svg xmlns="http://www.w3.org/2000/svg" xmlns:xlink="http://www.w3.org/1999/xlink" width="500" zoomAndPan="magnify" viewBox="0 0 375 374.999991" height="500" preserveAspectRatio="xMidYMid meet" version="1.0"><defs><clipPath id="623faf3a22"><path d="M 24.269531 38.789062 L 262.820312 38.789062 L 262.820312 337.5 L 24.269531 337.5 Z M 24.269531 38.789062 " clip-rule="nonzero"/></clipPath><clipPath id="74a8c97244"><path d="M 0.269531 0.789062 L 238.820312 0.789062 L 238.820312 299.5 L 0.269531 299.5 Z M 0.269531 0.789062 " clip-rule="nonzero"/></clipPath><clipPath id="6ebd8ea113"><rect x="0" width="239" y="0" height="300"/></clipPath><clipPath id="6cf589d08c"><path d="M 269.886719 38.789062 L 352.464844 38.789062 L 352.464844 337.5 L 269.886719 337.5 Z M 269.886719 38.789062 " clip-rule="nonzero"/></clipPath><clipPath id="422e0b4623"><path d="M 0.886719 0.789062 L 83.464844 0.789062 L 83.464844 299.5 L 0.886719 299.5 Z M 0.886719 0.789062 " clip-rule="nonzero"/></clipPath><clipPath id="1abfc7137c"><rect x="0" width="84" y="0" height="300"/></clipPath></defs><g clip-path="url(#623faf3a22)"><g transform="matrix(1, 0, 0, 1, 24, 38)"><g clip-path="url(#6ebd8ea113)"><g clip-path="url(#74a8c97244)"><path fill="#000000" d="M 0.269531 0.789062 L 238.820312 0.789062 L 238.820312 299.503906 L 0.269531 299.503906 Z M 0.269531 0.789062 " fill-opacity="1" fill-rule="nonzero"/></g></g></g></g><g clip-path="url(#6cf589d08c)"><g transform="matrix(1, 0, 0, 1, 269, 38)"><g clip-path="url(#1abfc7137c)"><g clip-path="url(#422e0b4623)"><path fill="#000000" d="M 0.886719 0.789062 L 83.464844 0.789062 L 83.464844 299.488281 L 0.886719 299.488281 Z M 0.886719 0.789062 " fill-opacity="1" fill-rule="nonzero"/></g></g></g></g></svg>