<svg xmlns="http://www.w3.org/2000/svg" xmlns:xlink="http://www.w3.org/1999/xlink" width="500" zoomAndPan="magnify" viewBox="0 0 375 374.999991" height="500" preserveAspectRatio="xMidYMid meet" version="1.0"><defs><clipPath id="86a9fad10e"><path d="M 24.269531 38.789062 L 95.761719 38.789062 L 95.761719 337.5 L 24.269531 337.5 Z M 24.269531 38.789062 " clip-rule="nonzero"/></clipPath><clipPath id="060b2a8515"><path d="M 0.269531 0.789062 L 71.761719 0.789062 L 71.761719 299.5 L 0.269531 299.5 Z M 0.269531 0.789062 " clip-rule="nonzero"/></clipPath><clipPath id="82c3fe731d"><rect x="0" width="72" y="0" height="300"/></clipPath><clipPath id="f87b2b6fcd"><path d="M 85.679688 38.789062 L 262.820312 38.789062 L 262.820312 337.5 L 85.679688 337.5 Z M 85.679688 38.789062 " clip-rule="nonzero"/></clipPath><clipPath id="e0088a65c2"><path d="M 0.679688 0.789062 L 177.820312 0.789062 L 177.820312 299.5 L 0.679688 299.5 Z M 0.679688 0.789062 " clip-rule="nonzero"/></clipPath><clipPath id="4efa203a8e"><rect x="0" width="178" y="0" height="300"/></clipPath><clipPath id="c708a9695b"><path d="M 269.886719 38.789062 L 352.464844 38.789062 L 352.464844 337.5 L 269.886719 337.5 Z M 269.886719 38.789062 " clip-rule="nonzero"/></clipPath><clipPath id="9dc1255217"><path d="M 0.886719 0.789062 L 83.464844 0.789062 L 83.464844 299.5 L 0.886719 299.5 Z M 0.886719 0.789062 " clip-rule="nonzero"/></clipPath><clipPath id="74c3f86ccb"><rect x="0" width="84" y="0" height="300"/></clipPath></defs><g clip-path="url(#86a9fad10e)"><g transform="matrix(1, 0, 0, 1, 24, 38)"><g clip-path="url(#82c3fe731d)"><g clip-path="url(#060b2a8515)"><path fill="#000000" d="M 0.269531 0.789062 L 71.761719 0.789062 L 71.761719 299.523438 L 0.269531 299.523438 Z M 0.269531 0.789062 " fill-opacity="1" fill-rule="nonzero"/></g></g></g></g><g clip-path="url(#f87b2b6fcd)"><g transform="matrix(1, 0, 0, 1, 85, 38)"><g clip-path="url(#4efa203a8e)"><g clip-path="url(#e0088a65c2)"><path fill="#000000" d="M 0.679688 0.789062 L 177.820312 0.789062 L 177.820312 299.476562 L 0.679688 299.476562 Z M 0.679688 0.789062 " fill-opacity="1" fill-rule="nonzero"/></g></g></g></g><g clip-path="url(#c708a9695b)"><g transform="matrix(1, 0, 0, 1, 269, 38)"><g clip-path="url(#74c3f86ccb)"><g clip-path="url(#9dc1255217)"><path fill="#000000" d="M 0.886719 0.789062 L 83.464844 0.789062 L 83.464844 299.488281 L 0.886719 299.488281 Z M 0.886719 0.789062 " fill-opacity="1" fill-rule="nonzero"/></g></g></g></g></svg>