<svg xmlns="http://www.w3.org/2000/svg" xmlns:xlink="http://www.w3.org/1999/xlink" width="500" zoomAndPan="magnify" viewBox="0 0 375 374.999991" height="500" preserveAspectRatio="xMidYMid meet" version="1.0"><defs><clipPath id="7e68b5ae19"><path d="M 24.269531 38.789062 L 95.761719 38.789062 L 95.761719 337.5 L 24.269531 337.5 Z M 24.269531 38.789062 " clip-rule="nonzero"/></clipPath><clipPath id="835bc57602"><path d="M 0.269531 0.789062 L 71.761719 0.789062 L 71.761719 299.5 L 0.269531 299.5 Z M 0.269531 0.789062 " clip-rule="nonzero"/></clipPath><clipPath id="2ee0d1fbea"><rect x="0" width="72" y="0" height="300"/></clipPath><clipPath id="64418b40b4"><path d="M 104.917969 38.789062 L 299.191406 38.789062 L 299.191406 337.5 L 104.917969 337.5 Z M 104.917969 38.789062 " clip-rule="nonzero"/></clipPath><clipPath id="86c1972109"><path d="M 0.917969 0.789062 L 195.191406 0.789062 L 195.191406 299.5 L 0.917969 299.5 Z M 0.917969 0.789062 " clip-rule="nonzero"/></clipPath><clipPath id="2127b01015"><rect x="0" width="196" y="0" height="300"/></clipPath><clipPath id="4348fc687a"><path d="M 280.972656 38.789062 L 352.464844 38.789062 L 352.464844 337.5 L 280.972656 337.5 Z M 280.972656 38.789062 " clip-rule="nonzero"/></clipPath><clipPath id="6fb546234f"><path d="M 0.972656 0.789062 L 72.464844 0.789062 L 72.464844 299.5 L 0.972656 299.5 Z M 0.972656 0.789062 " clip-rule="nonzero"/></clipPath><clipPath id="1171847f45"><rect x="0" width="73" y="0" height="300"/></clipPath></defs><g clip-path="url(#7e68b5ae19)"><g transform="matrix(1, 0, 0, 1, 24, 38)"><g clip-path="url(#2ee0d1fbea)"><g clip-path="url(#835bc57602)"><path fill="#000000" d="M 0.269531 0.789062 L 71.761719 0.789062 L 71.761719 299.523438 L 0.269531 299.523438 Z M 0.269531 0.789062 " fill-opacity="1" fill-rule="nonzero"/></g></g></g></g><g clip-path="url(#64418b40b4)"><g transform="matrix(1, 0, 0, 1, 104, 38)"><g clip-path="url(#2127b01015)"><g clip-path="url(#86c1972109)"><path fill="#000000" d="M 0.917969 0.789062 L 195.191406 0.789062 L 195.191406 299.527344 L 0.917969 299.527344 Z M 0.917969 0.789062 " fill-opacity="1" fill-rule="nonzero"/></g></g></g></g><g clip-path="url(#4348fc687a)"><g transform="matrix(1, 0, 0, 1, 280, 38)"><g clip-path="url(#1171847f45)"><g clip-path="url(#6fb546234f)"><path fill="#000000" d="M 0.972656 0.789062 L 72.464844 0.789062 L 72.464844 299.523438 L 0.972656 299.523438 Z M 0.972656 0.789062 " fill-opacity="1" fill-rule="nonzero"/></g></g></g></g></svg>