<svg xmlns="http://www.w3.org/2000/svg" xmlns:xlink="http://www.w3.org/1999/xlink" width="500" zoomAndPan="magnify" viewBox="0 0 375 374.999991" height="500" preserveAspectRatio="xMidYMid meet" version="1.0"><defs><clipPath id="3c982a6923"><path d="M 24.269531 38.789062 L 95.761719 38.789062 L 95.761719 337.5 L 24.269531 337.5 Z M 24.269531 38.789062 " clip-rule="nonzero"/></clipPath><clipPath id="1d56f76459"><path d="M 0.269531 0.789062 L 71.761719 0.789062 L 71.761719 299.5 L 0.269531 299.5 Z M 0.269531 0.789062 " clip-rule="nonzero"/></clipPath><clipPath id="e1f02d9c68"><rect x="0" width="72" y="0" height="300"/></clipPath><clipPath id="7ebeb1adee"><path d="M 104.917969 38.789062 L 352.464844 38.789062 L 352.464844 337.5 L 104.917969 337.5 Z M 104.917969 38.789062 " clip-rule="nonzero"/></clipPath><clipPath id="979444f8a9"><path d="M 0.917969 0.789062 L 248.464844 0.789062 L 248.464844 299.5 L 0.917969 299.5 Z M 0.917969 0.789062 " clip-rule="nonzero"/></clipPath><clipPath id="b3479005bc"><rect x="0" width="249" y="0" height="300"/></clipPath></defs><g clip-path="url(#3c982a6923)"><g transform="matrix(1, 0, 0, 1, 24, 38)"><g clip-path="url(#e1f02d9c68)"><g clip-path="url(#1d56f76459)"><path fill="#000000" d="M 0.269531 0.789062 L 71.761719 0.789062 L 71.761719 299.523438 L 0.269531 299.523438 Z M 0.269531 0.789062 " fill-opacity="1" fill-rule="nonzero"/></g></g></g></g><g clip-path="url(#7ebeb1adee)"><g transform="matrix(1, 0, 0, 1, 104, 38)"><g clip-path="url(#b3479005bc)"><g clip-path="url(#979444f8a9)"><path fill="#000000" d="M 0.917969 0.789062 L 248.464844 0.789062 L 248.464844 299.492188 L 0.917969 299.492188 Z M 0.917969 0.789062 " fill-opacity="1" fill-rule="nonzero"/></g></g></g></g></svg>