<svg xmlns="http://www.w3.org/2000/svg" xmlns:xlink="http://www.w3.org/1999/xlink" width="500" zoomAndPan="magnify" viewBox="0 0 375 374.999991" height="500" preserveAspectRatio="xMidYMid meet" version="1.0"><defs><clipPath id="a85a66269b"><path d="M 24.269531 38.789062 L 95.761719 38.789062 L 95.761719 337.5 L 24.269531 337.5 Z M 24.269531 38.789062 " clip-rule="nonzero"/></clipPath><clipPath id="3a5a58e95c"><path d="M 0.269531 0.789062 L 71.761719 0.789062 L 71.761719 299.5 L 0.269531 299.5 Z M 0.269531 0.789062 " clip-rule="nonzero"/></clipPath><clipPath id="5cbfd41642"><rect x="0" width="72" y="0" height="300"/></clipPath><clipPath id="61ca2663b3"><path d="M 83.664062 38.789062 L 289.113281 38.789062 L 289.113281 337.5 L 83.664062 337.5 Z M 83.664062 38.789062 " clip-rule="nonzero"/></clipPath><clipPath id="d773f30b46"><path d="M 0.664062 0.789062 L 206.113281 0.789062 L 206.113281 299.5 L 0.664062 299.5 Z M 0.664062 0.789062 " clip-rule="nonzero"/></clipPath><clipPath id="3c5de7b19c"><rect x="0" width="207" y="0" height="300"/></clipPath><clipPath id="5bb3502c7d"><path d="M 280.972656 38.789062 L 352.464844 38.789062 L 352.464844 337.5 L 280.972656 337.5 Z M 280.972656 38.789062 " clip-rule="nonzero"/></clipPath><clipPath id="b15e779666"><path d="M 0.972656 0.789062 L 72.464844 0.789062 L 72.464844 299.5 L 0.972656 299.5 Z M 0.972656 0.789062 " clip-rule="nonzero"/></clipPath><clipPath id="d35d51d5aa"><rect x="0" width="73" y="0" height="300"/></clipPath></defs><g clip-path="url(#a85a66269b)"><g transform="matrix(1, 0, 0, 1, 24, 38)"><g clip-path="url(#5cbfd41642)"><g clip-path="url(#3a5a58e95c)"><path fill="#000000" d="M 0.269531 0.789062 L 71.761719 0.789062 L 71.761719 299.523438 L 0.269531 299.523438 Z M 0.269531 0.789062 " fill-opacity="1" fill-rule="nonzero"/></g></g></g></g><g clip-path="url(#61ca2663b3)"><g transform="matrix(1, 0, 0, 1, 83, 38)"><g clip-path="url(#3c5de7b19c)"><g clip-path="url(#d773f30b46)"><path fill="#000000" d="M 0.664062 0.789062 L 206.113281 0.789062 L 206.113281 299.5 L 0.664062 299.5 Z M 0.664062 0.789062 " fill-opacity="1" fill-rule="nonzero"/></g></g></g></g><g clip-path="url(#5bb3502c7d)"><g transform="matrix(1, 0, 0, 1, 280, 38)"><g clip-path="url(#d35d51d5aa)"><g clip-path="url(#b15e779666)"><path fill="#000000" d="M 0.972656 0.789062 L 72.464844 0.789062 L 72.464844 299.523438 L 0.972656 299.523438 Z M 0.972656 0.789062 " fill-opacity="1" fill-rule="nonzero"/></g></g></g></g></svg>